# xmcd
# Track frame offsets:
# 150
# 14322
# 25800
# 40252
# 55022
# 71462
# 87917
# 101672
# 116420
# 133412
# 149087
# 163512
#
# Disc length: 2387 seconds
# Revision: 0
# Processed by: cddbd v1.5.1PL0 Copyright (c) Steve Scherf et al.
# Submitted via: VisiTrax 2.9.10.228 - For more info visit www.synapsa.com
#
DISCID=a309510c
DTITLE=Big Joe Williams - Piney Woods blues
DYEAR=1997
DGENRE=Blues
TTITLE0=Baby, Please don't go
TTITLE1=Drop Down Mama
TTITLE2=Mellow Peaches
TTITLE3=No More Whiskey
TTITLE4=Tailor Made Baby
TTITLE5=Big Joe Talking
TTITLE6=Some day Baby
TTITLE7=Good Morning little schoolgirl
TTITLE8=Peach Orchard Mama
TTITLE9=Juanita
TTITLE10=Shetland Pony Blues
TTITLE11=Omaha Blues
EXTD=
EXTT0=
EXTT1=
EXTT2=
EXTT3=
EXTT4=
EXTT5=
EXTT6=
EXTT7=
EXTT8=
EXTT9=
EXTT10=
EXTT11=
PLAYORDER=
